<?xml version="1.0" encoding="UTF-8"?>
<svg id="Layer_1" data-name="Layer 1" xmlns="http://www.w3.org/2000/svg" viewBox="0 0 910.63 555.08">
  <defs>
    <style>
      .cls-1 {
        fill: #193c3a;
        stroke-width: 0px;
      }
    </style>
  </defs>
  <g>
    <path class="cls-1" d="M300.63,520.52h-13.25v-3.45h30.47v3.45h-13.25v34.24h-3.98v-34.24Z"/>
    <path class="cls-1" d="M323.13,538.66v-21.59h3.98v21.43c0,8.94,4.2,13.03,11.52,13.03s11.58-4.09,11.58-13.03v-21.43h3.88v21.59c0,10.82-5.81,16.42-15.45,16.42s-15.51-5.6-15.51-16.42ZM342.51,507.33h5.11l-8.72,6.68h-3.77l7.38-6.68Z"/>
    <path class="cls-1" d="M419.33,517.07v37.69h-3.82v-30.15l-14.81,25.36h-1.88l-14.81-25.2v29.99h-3.82v-37.69h3.28l16.37,27.94,16.21-27.94h3.28Z"/>
    <path class="cls-1" d="M455.24,544.69h-21l-4.52,10.07h-4.15l17.23-37.69h3.93l17.23,37.69h-4.2l-4.52-10.07ZM453.78,541.46l-9.05-20.24-9.05,20.24h18.09Z"/>
    <path class="cls-1" d="M501.69,517.07v37.69h-3.28l-24.23-30.58v30.58h-3.98v-37.69h3.28l24.28,30.58v-30.58h3.93Z"/>
    <path class="cls-1" d="M513.96,517.07h15.34c12.06,0,20.19,7.75,20.19,18.85s-8.13,18.84-20.19,18.84h-15.34v-37.69ZM529.09,551.31c10.01,0,16.48-6.35,16.48-15.4s-6.46-15.4-16.48-15.4h-11.14v30.8h11.14Z"/>
    <path class="cls-1" d="M581.53,544.69h-21l-4.52,10.07h-4.15l17.23-37.69h3.93l17.23,37.69h-4.2l-4.52-10.07ZM580.07,541.46l-9.05-20.24-9.04,20.24h18.09Z"/>
    <path class="cls-1" d="M592.88,550.18l1.56-3.07c2.69,2.64,7.48,4.58,12.44,4.58,7.05,0,10.12-2.96,10.12-6.68,0-10.34-23.2-3.98-23.2-17.93,0-5.55,4.31-10.34,13.89-10.34,4.25,0,8.67,1.24,11.68,3.34l-1.35,3.18c-3.23-2.1-7-3.12-10.34-3.12-6.89,0-9.96,3.07-9.96,6.84,0,10.34,23.21,4.09,23.21,17.82,0,5.55-4.42,10.28-14.05,10.28-5.65,0-11.2-1.99-14-4.9Z"/>
  </g>
  <g>
    <path class="cls-1" d="M76.46,425.17h9.78v36.78c-9.09,8.13-22.04,12.26-35.41,12.26-29.34,0-50.84-20.8-50.84-49.05s21.49-49.05,50.97-49.05c14.6,0,27.28,4.68,35.82,13.91l-6.34,6.47c-8.13-7.99-17.77-11.3-29.07-11.3-23.83,0-41.33,16.94-41.33,39.95s17.5,39.95,41.19,39.95c9.23,0,17.77-2.07,25.21-7.44v-32.51Z"/>
    <path class="cls-1" d="M180.89,473.39l-22.04-31c-2.48.28-4.96.41-7.71.41h-25.9v30.59h-10.19v-96.44h36.1c24.52,0,39.4,12.4,39.4,33.07,0,15.15-7.99,25.76-22.04,30.31l23.56,33.06h-11.16ZM180.34,410.02c0-15.43-10.19-24.25-29.48-24.25h-25.63v48.36h25.63c19.29,0,29.48-8.96,29.48-24.11Z"/>
    <path class="cls-1" d="M213.81,432.2v-55.25h10.19v54.83c0,22.87,10.75,33.34,29.48,33.34s29.62-10.47,29.62-33.34v-54.83h9.92v55.25c0,27.69-14.88,42.02-39.54,42.02s-39.68-14.33-39.68-42.02Z"/>
    <path class="cls-1" d="M399.24,410.02c0,20.53-14.88,32.93-39.4,32.93h-25.9v30.45h-10.19v-96.44h36.1c24.52,0,39.4,12.4,39.4,33.07ZM389.05,410.02c0-15.43-10.19-24.25-29.48-24.25h-25.63v48.22h25.63c19.29,0,29.48-8.82,29.48-23.97Z"/>
    <path class="cls-1" d="M414.12,425.17c0-28.1,21.49-49.05,50.7-49.05s50.56,20.8,50.56,49.05-21.63,49.05-50.56,49.05-50.7-20.94-50.7-49.05ZM505.19,425.17c0-23.01-17.22-39.95-40.37-39.95s-40.64,16.94-40.64,39.95,17.36,39.95,40.64,39.95,40.37-16.94,40.37-39.95Z"/>
    <path class="cls-1" d="M574.34,376.95h10.19v87.62h54.01v8.82h-64.2v-96.44Z"/>
    <path class="cls-1" d="M723.68,464.57v8.82h-68.2v-96.44h66.13v8.82h-55.94v34.31h49.87v8.68h-49.87v35.82h58Z"/>
    <path class="cls-1" d="M808.13,447.63h-53.73l-11.57,25.76h-10.61l44.09-96.44h10.06l44.09,96.44h-10.75l-11.57-25.76ZM804.41,439.36l-23.15-51.8-23.15,51.8h46.29Z"/>
    <path class="cls-1" d="M846.42,376.95h10.19v87.62h54.01v8.82h-64.2v-96.44Z"/>
  </g>
  <g>
    <path class="cls-1" d="M447.64,167.07c-3.64-4.44-7.65-8.63-11.74-12.56-9.63-9.24-10.13-8.72-19.16.99-12.1,13.02-19.75,27.85-22.98,43.12-8.15-4.52-15.35-10.34-21.39-17.35,1.55.4,3.08.81,4.62,1.2,4.61,1.21,6.59.66,8.59-3.91,3.54-8.11,8.04-15.8,12.43-24.2-13.16-11.77-28.79-17.75-45.7-19.26-.73-6.23-.89-12.59-.77-18.8.27-13.35,1-13.33,14.25-12.84,41.25,1.51,72.37,26.88,81.84,63.6Z"/>
    <path class="cls-1" d="M453.99,142.02c-4.22-5.71-9.22-12.7-14.49-19.48-2.15-2.76-4.76-5.2-7.39-7.54-10.23-9.06-10.84-9.42-2.96-20.96,6.36-9.31,14.12-17.72,21.78-26.04,1.31-1.42,6.73-1.58,7.8-.3,8.93,10.75,17.49,21.83,25.6,33.22,1.36,1.92,1.2,6.84-.31,8.57-9.68,11.11-19.93,21.72-30.02,32.52Z"/>
    <path class="cls-1" d="M378.24,89.42c1.1-19.72,9.51-36.5,22.74-50.49,14.32-15.15,11.65-18.13,28.23.26,13.61,15.09,12.99,15.06.31,30.32-6.34,7.63-11.51,16.32-16.54,24.93-2.4,4.12-4.2,5.13-8.83,3.31-8.24-3.22-16.86-5.48-25.91-8.33Z"/>
    <path class="cls-1" d="M501.91,98.51c-10.71-13.51-20.84-26.08-30.62-38.92-1.23-1.61-1.67-5.53-.59-6.92,6.3-8.11,13.11-15.83,19.84-23.6,2.99-3.45,5.72-2.64,8.96.28,16.43,14.82,27.74,32.48,31.88,54.51.93,4.92-.16,6.54-5.11,7.64-8.92,1.98-17.6,5.01-24.37,7.01Z"/>
    <path class="cls-1" d="M477.66,20.37c-8.02,10.16-15,19.01-22.57,28.61-7.3-8.92-14.32-17.3-21-25.94-.71-.92-.05-3.83.94-4.97,5.12-5.92,10.28-11.88,16.08-17.1,1.52-1.36,6.44-1.28,7.98.12,6.53,5.97,12.36,12.7,18.57,19.27Z"/>
    <g>
      <path class="cls-1" d="M492.87,286.99c-10.76,9.94-11.32,9.93-21.17-.84-5-5.47-9.25-11.21-12.73-17.17,9.68-16.59,13.4-34.79,10.79-52.93,1.01.38,2.3.52,3.87.49,18.15-.33,34.01-4.77,47.09-12.37,6.53,29.01-2.88,59.73-27.85,82.82Z"/>
      <path class="cls-1" d="M505.68,293.76c2.12-2.32,3.79-4.11,5.42-5.93,22.73-25.32,55.85-32.31,86.76-16.86,10.97,5.48,20.42,14.05,30.49,21.31,4.16,3,4.05,6.33.82,10.31-34.8,42.97-90.39,49.4-132.61,8.72-3.5-3.37-4-6.02-.01-9.26,3.37-2.73,6.44-5.83,9.14-8.3Z"/>
      <path class="cls-1" d="M533.06,251.65c1.05-7.03,2.46-15.5,3.53-24.02.43-3.47.31-7.05.1-10.56-.83-13.64-1.01-14.33,12.73-16.92,11.08-2.09,22.51-2.55,33.81-3.01,1.93-.08,5.88,3.64,5.72,5.31-1.29,13.92-3.07,27.81-5.39,41.59-.39,2.32-3.98,5.68-6.28,5.84-14.7,1.01-29.45,1.26-44.22,1.77Z"/>
      <path class="cls-1" d="M588.24,161.41c-1.06,20.3-1.46,19.83-21.22,21.66-9.02.83-17.97,2.98-26.8,5.27,11.23-12.52,18.41-28.52,20.78-46.58,2.47-.25,4.96-.42,7.47-.49,20.83-.59,21.05-4.58,19.78,20.14Z"/>
      <path class="cls-1" d="M597.71,254.77c1.98-17.12,3.71-33.18,5.87-49.17.27-2.01,2.73-5.09,4.47-5.31,10.19-1.28,20.46-1.92,30.72-2.65,4.55-.32,5.91,2.18,6.14,6.53,1.14,22.1-3.35,42.58-16,61.09-2.82,4.13-4.74,4.51-9.01,1.79-7.7-4.91-15.99-8.9-22.19-12.28Z"/>
      <path class="cls-1" d="M635.81,182.36c-12.85,1.52-24.05,2.84-36.19,4.27,1.14-11.47,2.11-22.36,3.49-33.19.15-1.15,2.67-2.74,4.18-2.85,7.81-.56,15.67-1.13,23.46-.72,2.04.11,5.46,3.65,5.55,5.73.39,8.84-.24,17.72-.49,26.76Z"/>
    </g>
    <g>
      <path class="cls-1" d="M440.83,216.22c-2.57,18.08,1.16,36.21,10.82,52.76-3.48,5.96-7.73,11.7-12.74,17.17-9.85,10.77-10.41,10.78-21.17.84-24.68-22.83-34.16-53.12-28.06-81.84,11.91,6.63,25.85,10.48,41.24,11.17,4.52.2,7.67.3,9.9-.09Z"/>
      <path class="cls-1" d="M404.94,293.76c-2.12-2.32-3.79-4.11-5.42-5.93-22.73-25.32-55.85-32.31-86.76-16.86-10.97,5.48-20.42,14.05-30.49,21.31-4.16,3-4.05,6.33-.82,10.31,34.8,42.97,90.39,49.4,132.61,8.72,3.5-3.37,4-6.02.01-9.26-3.37-2.73-6.44-5.83-9.14-8.3Z"/>
      <path class="cls-1" d="M377.57,251.65c-1.05-7.03-2.46-15.5-3.53-24.02-.43-3.47-.31-7.05-.1-10.56.83-13.64,1.01-14.33-12.73-16.92-11.08-2.09-22.51-2.55-33.81-3.01-1.93-.08-5.88,3.64-5.72,5.31,1.29,13.92,3.07,27.81,5.39,41.59.39,2.32,3.98,5.68,6.28,5.84,14.7,1.01,29.45,1.26,44.22,1.77Z"/>
      <path class="cls-1" d="M367.48,187.79c-8.14-2.08-16.39-3.96-24.7-4.73-19.75-1.82-20.17-1.36-21.22-21.66-1.29-24.72-1.06-20.73,19.78-20.14,2.04.06,4.07.17,6.08.36.46,4.01,1.18,7.98,2.21,11.82,3.59,13.38,9.69,24.93,17.85,34.35Z"/>
      <path class="cls-1" d="M312.92,254.77c-1.98-17.12-3.71-33.18-5.87-49.17-.27-2.01-2.73-5.09-4.47-5.31-10.19-1.28-20.46-1.92-30.72-2.65-4.55-.32-5.91,2.18-6.14,6.53-1.14,22.1,3.35,42.58,16,61.09,2.82,4.13,4.74,4.51,9.01,1.79,7.7-4.91,15.99-8.9,22.19-12.28Z"/>
      <path class="cls-1" d="M274.82,182.36c12.85,1.52,24.05,2.84,36.19,4.27-1.14-11.47-2.11-22.36-3.49-33.19-.15-1.15-2.67-2.74-4.18-2.85-7.81-.56-15.67-1.13-23.46-.72-2.04.11-5.46,3.65-5.55,5.73-.39,8.84.24,17.72.49,26.76Z"/>
    </g>
    <path class="cls-1" d="M352.31,135.11s1.38,24.51,20.06,46.17c17.18,19.92,30.41-34.09,30.41-34.09l-44.31-22.16-6.16,10.07Z"/>
    <path class="cls-1" d="M393.76,198.63s20.25,15.26,51.14,11.08c0,0,10.92-12.51,2.73-42.63-8.18-30.11-30.18-24.2-30.18-24.2l-27.56,40.36,3.86,15.38Z"/>
    <g>
      <path class="cls-1" d="M461.62,167.07c3.64-4.44,7.65-8.63,11.74-12.56,9.63-9.24,10.13-8.72,19.16.99,12.1,13.02,19.75,27.85,22.98,43.12,8.15-4.52,15.35-10.34,21.39-17.35-1.55.4-3.08.81-4.62,1.2-4.61,1.21-6.59.66-8.59-3.91-3.54-8.11-8.04-15.8-12.43-24.2,13.16-11.77,28.79-17.75,45.7-19.26.73-6.23.89-12.59.77-18.8-.27-13.35-1-13.33-14.25-12.84-41.25,1.51-72.37,26.88-81.84,63.6Z"/>
      <path class="cls-1" d="M556.95,135.11s-1.38,24.51-20.06,46.17c-17.18,19.92-30.41-34.09-30.41-34.09l44.31-22.16,6.16,10.07Z"/>
      <path class="cls-1" d="M515.49,198.63s-20.25,15.26-51.14,11.08c0,0-10.92-12.51-2.73-42.63,8.18-30.11,30.18-24.2,30.18-24.2l27.56,40.36-3.86,15.38Z"/>
    </g>
  </g>
</svg>