<?xml version="1.0" encoding="UTF-8"?>
<svg id="Layer_1" data-name="Layer 1" xmlns="http://www.w3.org/2000/svg" viewBox="0 0 824.05 502.31">
  <defs>
    <style>
      .cls-1 {
        fill: #fcedc9;
        stroke-width: 0px;
      }
    </style>
  </defs>
  <g>
    <path class="cls-1" d="M272.04,471.04h-11.98v-3.12h27.57v3.12h-11.98v30.98h-3.6v-30.98Z"/>
    <path class="cls-1" d="M292.41,487.45v-19.53h3.6v19.39c0,8.08,3.8,11.79,10.42,11.79s10.47-3.7,10.47-11.79v-19.39h3.51v19.53c0,9.79-5.26,14.86-13.98,14.86s-14.03-5.07-14.03-14.86ZM309.94,459.11h4.63l-7.89,6.04h-3.41l6.67-6.04Z"/>
    <path class="cls-1" d="M379.45,467.92v34.09h-3.46v-27.27l-13.39,22.94h-1.7l-13.39-22.79v27.13h-3.46v-34.09h2.97l14.81,25.28,14.66-25.28h2.97Z"/>
    <path class="cls-1" d="M411.94,492.91h-18.99l-4.09,9.11h-3.75l15.59-34.09h3.56l15.59,34.09h-3.8l-4.09-9.11ZM410.63,489.99l-8.18-18.31-8.18,18.31h16.37Z"/>
    <path class="cls-1" d="M453.98,467.92v34.09h-2.97l-21.92-27.66v27.66h-3.61v-34.09h2.97l21.97,27.67v-27.67h3.56Z"/>
    <path class="cls-1" d="M465.09,467.92h13.88c10.91,0,18.26,7.01,18.26,17.05s-7.36,17.05-18.26,17.05h-13.88v-34.09ZM478.78,498.9c9.06,0,14.9-5.75,14.9-13.93s-5.84-13.93-14.9-13.93h-10.08v27.86h10.08Z"/>
    <path class="cls-1" d="M526.23,492.91h-18.99l-4.09,9.11h-3.75l15.59-34.09h3.56l15.59,34.09h-3.8l-4.09-9.11ZM524.91,489.99l-8.18-18.31-8.18,18.31h16.37Z"/>
    <path class="cls-1" d="M536.51,497.88l1.41-2.78c2.44,2.39,6.77,4.14,11.25,4.14,6.38,0,9.16-2.68,9.16-6.04,0-9.35-20.99-3.6-20.99-16.22,0-5.02,3.9-9.35,12.57-9.35,3.85,0,7.84,1.12,10.57,3.02l-1.22,2.87c-2.92-1.9-6.33-2.82-9.35-2.82-6.23,0-9.01,2.78-9.01,6.19,0,9.35,20.99,3.7,20.99,16.12,0,5.02-3.99,9.3-12.71,9.3-5.11,0-10.13-1.8-12.66-4.43Z"/>
  </g>
  <g>
    <path class="cls-1" d="M69.19,384.75h8.85v33.29c-8.23,7.36-19.95,11.1-32.04,11.1-26.55,0-46-18.82-46-44.38s19.45-44.38,46.13-44.38c13.22,0,24.69,4.24,32.41,12.59l-5.74,5.86c-7.35-7.23-16.08-10.22-26.3-10.22-21.57,0-37.4,15.33-37.4,36.15s15.83,36.15,37.28,36.15c8.35,0,16.08-1.87,22.82-6.73v-29.42Z"/>
    <path class="cls-1" d="M163.69,428.38l-19.95-28.05c-2.24.25-4.49.37-6.98.37h-23.44v27.68h-9.23v-87.27h32.66c22.19,0,35.65,11.22,35.65,29.92,0,13.71-7.23,23.31-19.95,27.43l21.32,29.92h-10.1ZM163.19,371.04c0-13.96-9.23-21.94-26.68-21.94h-23.19v43.76h23.19c17.45,0,26.68-8.1,26.68-21.82Z"/>
    <path class="cls-1" d="M193.48,391.11v-49.99h9.23v49.62c0,20.7,9.72,30.17,26.68,30.17s26.8-9.47,26.8-30.17v-49.62h8.98v49.99c0,25.06-13.47,38.02-35.78,38.02s-35.9-12.97-35.9-38.02Z"/>
    <path class="cls-1" d="M361.29,371.04c0,18.58-13.46,29.8-35.65,29.8h-23.44v27.55h-9.23v-87.27h32.66c22.19,0,35.65,11.22,35.65,29.92ZM352.06,371.04c0-13.96-9.23-21.94-26.68-21.94h-23.19v43.64h23.19c17.45,0,26.68-7.98,26.68-21.69Z"/>
    <path class="cls-1" d="M374.75,384.75c0-25.43,19.45-44.38,45.88-44.38s45.76,18.82,45.76,44.38-19.57,44.38-45.76,44.38-45.88-18.95-45.88-44.38ZM457.15,384.75c0-20.82-15.58-36.15-36.53-36.15s-36.78,15.33-36.78,36.15,15.71,36.15,36.78,36.15,36.53-15.33,36.53-36.15Z"/>
    <path class="cls-1" d="M519.73,341.11h9.23v79.29h48.87v7.98h-58.1v-87.27Z"/>
    <path class="cls-1" d="M654.87,420.4v7.98h-61.71v-87.27h59.84v7.98h-50.62v31.04h45.13v7.85h-45.13v32.41h52.49Z"/>
    <path class="cls-1" d="M731.29,405.07h-48.62l-10.47,23.31h-9.6l39.89-87.27h9.1l39.89,87.27h-9.72l-10.47-23.31ZM727.93,397.59l-20.94-46.88-20.94,46.88h41.89Z"/>
    <path class="cls-1" d="M765.95,341.11h9.23v79.29h48.87v7.98h-58.1v-87.27Z"/>
  </g>
  <g>
    <path class="cls-1" d="M405.08,151.19c-3.29-4.02-6.92-7.81-10.62-11.36-8.71-8.37-9.17-7.89-17.34.9-10.95,11.78-17.87,25.2-20.8,39.02-7.37-4.09-13.89-9.36-19.36-15.7,1.4.36,2.79.73,4.18,1.09,4.18,1.1,5.97.6,7.78-3.53,3.2-7.33,7.28-14.29,11.25-21.9-11.91-10.65-26.05-16.06-41.36-17.43-.66-5.64-.8-11.39-.69-17.01.24-12.08.91-12.06,12.89-11.62,37.33,1.37,65.49,24.32,74.06,57.55Z"/>
    <path class="cls-1" d="M410.83,128.52c-3.82-5.17-8.34-11.5-13.11-17.63-1.94-2.5-4.31-4.71-6.69-6.82-9.26-8.2-9.81-8.52-2.68-18.97,5.75-8.43,12.77-16.03,19.71-23.56,1.18-1.29,6.09-1.43,7.06-.27,8.08,9.73,15.83,19.76,23.16,30.06,1.24,1.74,1.09,6.19-.28,7.76-8.76,10.05-18.04,19.65-27.17,29.43Z"/>
    <path class="cls-1" d="M342.27,80.92c1-17.84,8.61-33.03,20.58-45.69,12.96-13.71,10.55-16.4,25.55.24,12.31,13.66,11.75,13.63.28,27.43-5.74,6.91-10.42,14.77-14.97,22.56-2.18,3.72-3.8,4.64-7.99,3-7.46-2.92-15.26-4.96-23.44-7.53Z"/>
    <path class="cls-1" d="M454.19,89.15c-9.69-12.23-18.86-23.6-27.71-35.22-1.11-1.46-1.51-5-.53-6.26,5.7-7.34,11.86-14.33,17.96-21.36,2.71-3.12,5.18-2.39,8.11.25,14.87,13.41,25.1,29.39,28.85,49.33.84,4.45-.14,5.92-4.62,6.91-8.07,1.79-15.93,4.54-22.05,6.34Z"/>
    <path class="cls-1" d="M432.24,18.44c-7.25,9.2-13.57,17.2-20.43,25.89-6.61-8.07-12.96-15.66-19.01-23.47-.64-.83-.05-3.46.85-4.5,4.64-5.36,9.3-10.75,14.55-15.47,1.37-1.23,5.83-1.16,7.22.11,5.9,5.41,11.19,11.49,16.81,17.44Z"/>
    <g>
      <path class="cls-1" d="M446.01,259.7c-9.74,9-10.24,8.98-19.15-.76-4.53-4.95-8.37-10.15-11.52-15.54,8.76-15.02,12.13-31.48,9.77-47.9.91.35,2.08.47,3.5.44,16.42-.3,30.78-4.32,42.61-11.19,5.91,26.25-2.61,54.05-25.2,74.95Z"/>
      <path class="cls-1" d="M457.61,265.83c1.92-2.1,3.43-3.72,4.9-5.36,20.57-22.91,50.54-29.24,78.51-15.26,9.93,4.96,18.48,12.71,27.59,19.29,3.77,2.72,3.67,5.72.74,9.33-31.49,38.89-81.79,44.71-120,7.89-3.16-3.05-3.62-5.45-.01-8.38,3.05-2.47,5.83-5.27,8.27-7.51Z"/>
      <path class="cls-1" d="M482.38,227.72c.95-6.36,2.23-14.03,3.19-21.74.39-3.14.28-6.38.09-9.55-.75-12.35-.91-12.96,11.52-15.31,10.03-1.89,20.37-2.31,30.6-2.72,1.75-.07,5.32,3.29,5.18,4.8-1.17,12.59-2.78,25.16-4.88,37.63-.35,2.1-3.6,5.14-5.69,5.29-13.3.92-26.65,1.14-40.02,1.6Z"/>
      <path class="cls-1" d="M532.32,146.06c-.96,18.37-1.33,17.95-19.21,19.6-8.16.75-16.26,2.7-24.25,4.77,10.16-11.33,16.66-25.81,18.8-42.15,2.23-.23,4.48-.38,6.76-.44,18.85-.53,19.05-4.15,17.9,18.23Z"/>
      <path class="cls-1" d="M540.88,230.55c1.8-15.5,3.35-30.02,5.32-44.5.25-1.82,2.47-4.6,4.05-4.8,9.22-1.16,18.52-1.74,27.8-2.4,4.12-.29,5.35,1.98,5.55,5.91,1.03,20-3.03,38.53-14.48,55.28-2.56,3.74-4.29,4.08-8.16,1.62-6.97-4.44-14.47-8.06-20.08-11.11Z"/>
      <path class="cls-1" d="M575.36,165.03c-11.63,1.37-21.76,2.57-32.75,3.87,1.04-10.38,1.91-20.23,3.16-30.04.13-1.04,2.42-2.48,3.79-2.58,7.07-.51,14.18-1.02,21.23-.65,1.84.1,4.94,3.3,5.02,5.18.35,8-.21,16.04-.45,24.22Z"/>
    </g>
    <g>
      <path class="cls-1" d="M398.92,195.66c-2.33,16.36,1.05,32.77,9.79,47.74-3.15,5.39-7,10.59-11.52,15.54-8.91,9.74-9.42,9.76-19.15.76-22.34-20.66-30.92-48.07-25.39-74.06,10.78,6,23.4,9.49,37.32,10.1,4.09.18,6.94.27,8.95-.08Z"/>
      <path class="cls-1" d="M366.44,265.83c-1.92-2.1-3.43-3.72-4.9-5.36-20.57-22.91-50.54-29.24-78.51-15.26-9.93,4.96-18.48,12.71-27.59,19.29-3.77,2.72-3.67,5.72-.74,9.33,31.49,38.89,81.79,44.71,120,7.89,3.16-3.05,3.62-5.45.01-8.38-3.05-2.47-5.83-5.27-8.27-7.51Z"/>
      <path class="cls-1" d="M341.67,227.72c-.95-6.36-2.23-14.03-3.19-21.74-.39-3.14-.28-6.38-.09-9.55.75-12.35.91-12.96-11.52-15.31-10.03-1.89-20.37-2.31-30.6-2.72-1.75-.07-5.32,3.29-5.18,4.8,1.17,12.59,2.78,25.16,4.88,37.63.35,2.1,3.6,5.14,5.69,5.29,13.3.92,26.65,1.14,40.02,1.6Z"/>
      <path class="cls-1" d="M332.55,169.94c-7.36-1.89-14.83-3.59-22.35-4.28-17.87-1.65-18.25-1.23-19.2-19.6-1.16-22.37-.96-18.76,17.89-18.23,1.85.05,3.68.15,5.5.32.42,3.63,1.07,7.22,2,10.69,3.25,12.11,8.77,22.56,16.16,31.08Z"/>
      <path class="cls-1" d="M283.17,230.55c-1.8-15.5-3.35-30.02-5.32-44.5-.25-1.82-2.47-4.6-4.05-4.8-9.22-1.16-18.52-1.74-27.8-2.4-4.12-.29-5.35,1.98-5.55,5.91-1.03,20,3.03,38.53,14.48,55.28,2.56,3.74,4.29,4.08,8.16,1.62,6.97-4.44,14.47-8.06,20.08-11.11Z"/>
      <path class="cls-1" d="M248.69,165.03c11.63,1.37,21.76,2.57,32.75,3.87-1.04-10.38-1.91-20.23-3.16-30.04-.13-1.04-2.42-2.48-3.79-2.58-7.07-.51-14.18-1.02-21.23-.65-1.84.1-4.94,3.3-5.02,5.18-.35,8,.21,16.04.45,24.22Z"/>
    </g>
    <path class="cls-1" d="M318.81,122.27s1.25,22.18,18.15,41.78c15.55,18.03,27.52-30.85,27.52-30.85l-40.1-20.05-5.57,9.12Z"/>
    <path class="cls-1" d="M356.32,179.75s18.33,13.81,46.28,10.02c0,0,9.88-11.32,2.47-38.57-7.41-27.25-27.31-21.9-27.31-21.9l-24.94,36.53,3.49,13.92Z"/>
    <g>
      <path class="cls-1" d="M417.73,151.19c3.29-4.02,6.92-7.81,10.62-11.36,8.71-8.37,9.17-7.89,17.34.9,10.95,11.78,17.87,25.2,20.8,39.02,7.37-4.09,13.89-9.36,19.36-15.7-1.4.36-2.79.73-4.18,1.09-4.18,1.1-5.97.6-7.78-3.53-3.2-7.33-7.28-14.29-11.25-21.9,11.91-10.65,26.05-16.06,41.36-17.43.66-5.64.8-11.39.69-17.01-.24-12.08-.91-12.06-12.89-11.62-37.33,1.37-65.49,24.32-74.06,57.55Z"/>
      <path class="cls-1" d="M504,122.27s-1.25,22.18-18.15,41.78c-15.55,18.03-27.52-30.85-27.52-30.85l40.1-20.05,5.57,9.12Z"/>
      <path class="cls-1" d="M466.48,179.75s-18.33,13.81-46.28,10.02c0,0-9.88-11.32-2.47-38.57,7.41-27.25,27.31-21.9,27.31-21.9l24.94,36.53-3.49,13.92Z"/>
    </g>
  </g>
</svg>